HIERARCHY
ROOT SpineBase
{
  OFFSET 0.000000 0.000000 0.000000
  CHANNELS 6 Xposition Yposition Zposition Zrotation Xrotation Yrotation
  JOINT SpineMid
  {
    OFFSET 0.000000 29.832629 0.000000
    CHANNELS 3 Zrotation Xrotation Yrotation
    JOINT SpineShoulder
    {
      OFFSET 0.024696 22.207662 -0.609895
      CHANNELS 3 Zrotation Xrotation Yrotation
      JOINT Neck
      {
        OFFSET 0.023874 7.368500 -0.492286
        CHANNELS 3 Zrotation Xrotation Yrotation
        JOINT Head
        {
          OFFSET -4.978477 13.317455 -0.126044
          CHANNELS 3 Zrotation Xrotation Yrotation
          End Site
          {
            OFFSET 0 0 0
          }
        }
      }
      JOINT ShoulderLeft
      {
        OFFSET -15.414161 -4.540246 7.223979
        CHANNELS 3 Zrotation Xrotation Yrotation
        JOINT ElbowLeft
        {
          OFFSET -0.871690 -25.586978 2.484343
          CHANNELS 3 Zrotation Xrotation Yrotation
          JOINT WristLeft
          {
            OFFSET 0.228820 -17.865958 -3.524735
            CHANNELS 3 Zrotation Xrotation Yrotation
            JOINT HandLeft
            {
              OFFSET 0.519917 -4.010807 -2.303420
              CHANNELS 3 Zrotation Xrotation Yrotation
              JOINT HandTipLeft
              {
                OFFSET -0.266080 -6.354043 0.368199
                CHANNELS 3 Zrotation Xrotation Yrotation
                End Site
                {
                  OFFSET 0 0 0
                }
              }
              JOINT ThumbLeft
              {
                OFFSET 4.096742 1.625655 -6.933197
                CHANNELS 3 Zrotation Xrotation Yrotation
                End Site
                {
                  OFFSET 0 0 0
                }
              }
            }
          }
        }
      }
      JOINT ShoulderRight
      {
        OFFSET 13.395570 -2.495972 -8.849065
        CHANNELS 3 Zrotation Xrotation Yrotation
        JOINT ElbowRight
        {
          OFFSET 6.403002 -24.653266 -0.873489
          CHANNELS 3 Zrotation Xrotation Yrotation
          JOINT WristRight
          {
            OFFSET -0.379798 -18.901059 -3.459095
            CHANNELS 3 Zrotation Xrotation Yrotation
            JOINT HandRight
            {
              OFFSET -2.084931 -6.085406 -0.811065
              CHANNELS 3 Zrotation Xrotation Yrotation
              JOINT HandTipRight
              {
                OFFSET -0.392475 -5.200751 -0.178057
                CHANNELS 3 Zrotation Xrotation Yrotation
                End Site
                {
                  OFFSET 0 0 0
                }
              }
              JOINT ThumbRight
              {
                OFFSET -3.257546 0.654428 -1.597122
                CHANNELS 3 Zrotation Xrotation Yrotation
                End Site
                {
                  OFFSET 0 0 0
                }
              }
            }
          }
        }
      }
    }
  }
  JOINT HipLeft
  {
    OFFSET -6.146291 0.355586 -0.610105
    CHANNELS 3 Zrotation Xrotation Yrotation
    JOINT KneeLeft
    {
      OFFSET 5.710054 -29.623457 3.514831
      CHANNELS 3 Zrotation Xrotation Yrotation
      JOINT AnkleLeft
      {
        OFFSET 5.697782 -31.017489 1.612173
        CHANNELS 3 Zrotation Xrotation Yrotation
        JOINT FootLeft
        {
          OFFSET 4.866982 -6.192457 -6.005734
          CHANNELS 3 Zrotation Xrotation Yrotation
          End Site
          {
            OFFSET 0 0 0
          }
        }
      }
    }
  }
  JOINT HipRight
  {
    OFFSET 6.702063 1.586098 -5.859752
    CHANNELS 3 Zrotation Xrotation Yrotation
    JOINT KneeRight
    {
      OFFSET 7.110093 -27.742591 1.565067
      CHANNELS 3 Zrotation Xrotation Yrotation
      JOINT AnkleRight
      {
        OFFSET 2.091313 -33.990965 5.335243
        CHANNELS 3 Zrotation Xrotation Yrotation
        JOINT FootRight
        {
          OFFSET -2.578313 -7.431776 -4.610266
          CHANNELS 3 Zrotation Xrotation Yrotation
          End Site
          {
            OFFSET 0 0 0
          }
        }
      }
    }
  }
}
MOTION
Frames: 11
Frame Time: 0.033333
-28.903802 69.244771 340.712346 2.638148 -2.414690 37.120554 -0.327387 -0.476105 -36.977145 0.023802 -0.209695 0.117447 -10.454633 -0.220574 -1.303501 0.000000 0.000000 0.000000 -1.097993 0.504301 0.079932 -1.177951 5.229079 -0.279843 9.281343 -5.932345 -5.273000 -5.923805 13.598804 5.518852 0.000000 0.000000 0.000000 0.000000 0.000000 0.000000 -47.415907 39.925085 31.844401 -101.840066 17.780096 -19.321557 8.001078 3.083172 -7.118547 -20.879895 5.453363 -12.562805 0.000000 0.000000 0.000000 0.000000 0.000000 0.000000 -1.079101 6.494196 -36.851433 3.726002 -2.687506 -0.069612 -15.110361 -1.862296 12.521833 0.000000 0.000000 0.000000 -4.231291 0.559682 -38.136641 0.987951 4.536982 1.179968 11.050848 -0.585229 -6.861115 0.000000 0.000000 0.000000
-28.999746 69.201653 340.685350 2.617797 -2.463893 37.027774 -0.288087 -0.457559 -36.884883 0.030821 -0.191424 0.117232 -10.295325 -0.367632 -1.370001 0.000000 0.000000 0.000000 -0.417443 0.611236 0.118000 -1.855413 5.204462 -0.328288 9.071067 -5.782985 -5.139045 -5.192726 15.054941 5.189456 0.000000 0.000000 0.000000 0.000000 0.000000 0.000000 -47.514457 40.036225 31.981135 -100.770678 18.190738 -18.331083 6.168893 1.432328 -9.389679 -18.844120 4.102363 -16.492959 0.000000 0.000000 0.000000 0.000000 0.000000 0.000000 -0.946028 6.587903 -36.740509 3.875136 -2.915121 -0.092348 -18.365167 2.159397 19.646123 0.000000 0.000000 0.000000 -4.044030 0.514958 -38.032470 0.836773 4.500233 1.168639 8.243179 3.848751 -6.755927 0.000000 0.000000 0.000000
-29.095482 69.169707 340.594212 2.597321 -2.456691 37.109640 -0.269524 -0.418491 -36.968907 0.035945 -0.183972 0.116003 -10.186802 -0.433759 -1.382899 0.000000 0.000000 0.000000 0.049244 0.774157 0.136022 -2.109345 5.111705 -0.405113 7.752327 -4.779408 -4.435598 -3.388384 14.719195 4.246041 0.000000 0.000000 0.000000 0.000000 0.000000 0.000000 -47.483995 40.040227 31.977102 -100.669974 18.149865 -18.520857 6.076711 2.699362 -8.000275 -17.406620 1.857679 -21.644281 0.000000 0.000000 0.000000 0.000000 0.000000 0.000000 -0.867465 6.605208 -36.814180 3.988780 -3.081452 -0.108327 -22.602092 6.411963 28.234125 0.000000 0.000000 0.000000 -3.953109 0.326925 -38.138202 0.665103 4.590541 1.188870 5.902188 7.187478 -6.391013 0.000000 0.000000 0.000000
-29.192060 69.152918 340.462363 2.607162 -2.428581 37.201813 -0.248085 -0.384901 -37.062028 0.035390 -0.176571 0.115971 -10.331150 -0.364044 -1.328247 0.000000 0.000000 0.000000 0.241107 1.025692 0.131122 -2.005395 4.933537 -0.490460 7.146417 -2.670218 -4.034740 -2.687045 12.166801 3.787380 0.000000 0.000000 0.000000 0.000000 0.000000 0.000000 -47.298140 39.940060 31.783687 -100.525592 18.207360 -18.093094 5.614716 2.376449 -8.508031 -15.979081 2.995126 -18.371437 0.000000 0.000000 0.000000 0.000000 0.000000 0.000000 -0.886228 6.625894 -36.904295 4.131000 -3.238747 -0.118549 -28.899838 11.209251 40.053157 0.000000 0.000000 0.000000 -3.968064 0.126668 -38.266952 0.537220 4.734481 1.223517 4.309105 9.291039 -6.024330 0.000000 0.000000 0.000000
-29.304053 69.075737 340.330380 2.616001 -2.443566 37.606064 -0.235341 -0.330210 -37.466658 0.014684 -0.164196 0.114227 -10.428710 -0.281647 -1.273953 0.000000 0.000000 0.000000 0.407816 1.143192 0.132207 -1.896300 4.495244 -0.560357 4.953607 3.776389 -2.473691 -2.602492 2.698486 2.169110 0.000000 0.000000 0.000000 0.000000 0.000000 0.000000 -47.176101 39.719353 31.564927 -100.705685 18.248018 -17.535328 5.898221 2.319575 -8.701239 -17.509302 1.029474 -24.008903 0.000000 0.000000 0.000000 0.000000 0.000000 0.000000 -0.690864 6.757252 -37.283742 4.212907 -3.580095 -0.163084 -30.961956 12.212438 43.434871 0.000000 0.000000 0.000000 -3.974320 -0.115305 -38.726738 0.821180 4.267229 1.269014 3.053843 11.070667 -5.881440 0.000000 0.000000 0.000000
-29.444470 69.057030 340.155051 2.606645 -2.413184 37.890008 -0.238115 -0.295716 -37.752494 -0.008485 -0.166129 0.111907 -10.594395 -0.145378 -1.191465 0.000000 0.000000 0.000000 0.328351 1.430372 0.107683 -1.680315 4.054543 -0.561074 4.367940 4.094769 -2.166209 -0.453801 5.374019 1.815591 0.000000 0.000000 0.000000 0.000000 0.000000 0.000000 -47.237902 39.600566 31.542855 -100.501161 18.153566 -17.575547 5.511454 2.340682 -8.680347 -16.288559 2.436521 -20.037990 0.000000 0.000000 0.000000 0.000000 0.000000 0.000000 -0.558142 6.683241 -37.560721 4.205326 -3.763647 -0.196875 -34.343985 13.654456 49.090997 0.000000 0.000000 0.000000 -4.017311 -0.420915 -39.075809 0.719725 4.520775 1.333952 2.926298 10.967130 -5.812367 0.000000 0.000000 0.000000
-29.630059 69.070656 339.980197 2.542596 -2.377082 38.230086 -0.225011 -0.270144 -38.097327 -0.039831 -0.173690 0.107831 -10.697849 0.031803 -1.087165 0.000000 0.000000 0.000000 -0.044973 1.911823 0.055560 -1.286000 3.591584 -0.485711 5.273362 -0.078780 -2.982972 0.889681 12.776520 2.333038 0.000000 0.000000 0.000000 0.000000 0.000000 0.000000 -47.543971 39.505149 31.708277 -100.053330 17.916363 -18.137291 4.873505 2.798057 -8.038391 -15.443580 3.487117 -17.235386 0.000000 0.000000 0.000000 0.000000 0.000000 0.000000 -0.267115 6.480916 -37.889250 4.006245 -3.953396 -0.256600 -34.937475 13.809795 49.973760 0.000000 0.000000 0.000000 -3.958169 -0.810759 -39.483748 0.425330 4.659015 1.383776 4.083459 11.035165 -6.581214 0.000000 0.000000 0.000000
-29.775277 69.092649 339.781226 2.515900 -2.258320 38.692801 -0.250001 -0.282648 -38.563726 -0.034039 -0.188654 0.106794 -10.920484 0.100797 -1.028185 0.000000 0.000000 0.000000 -0.481743 2.380795 0.004297 -0.777881 3.229208 -0.434004 7.991488 -2.746142 -4.603135 1.481142 16.101597 3.735297 0.000000 0.000000 0.000000 0.000000 0.000000 0.000000 -47.851824 39.296455 31.744113 -99.494885 17.675789 -18.353672 4.136940 2.869526 -7.921434 -14.405383 3.060850 -18.235173 0.000000 0.000000 0.000000 0.000000 0.000000 0.000000 -0.051208 6.230804 -38.339149 3.755933 -4.157943 -0.324410 -31.337083 11.812193 43.440716 0.000000 0.000000 0.000000 -4.113282 -1.276483 -40.046909 0.257856 4.935935 1.469011 5.438715 9.479156 -6.995169 0.000000 0.000000 0.000000
-29.939033 69.126878 339.630192 2.481904 -2.185621 38.990460 -0.262266 -0.306620 -38.864186 -0.019814 -0.197472 0.106472 -11.210684 0.218948 -0.958204 0.000000 0.000000 0.000000 -0.858790 2.799522 -0.036809 -0.305804 3.022576 -0.397236 11.873082 -8.633710 -6.831660 2.786429 25.709714 4.753054 0.000000 0.000000 0.000000 0.000000 0.000000 0.000000 -48.266961 39.093072 31.837200 -98.393330 17.558150 -18.066647 2.772044 2.528536 -8.551743 -12.425884 4.145345 -15.354296 0.000000 0.000000 0.000000 0.000000 0.000000 0.000000 0.227945 6.029656 -38.613652 3.468802 -4.470778 -0.413688 -26.515310 8.662837 34.432289 0.000000 0.000000 0.000000 -4.133043 -1.654581 -40.411574 0.085712 5.091018 1.526951 7.311977 7.032791 -7.450459 0.000000 0.000000 0.000000
-30.073715 69.161143 339.513726 2.488139 -2.125767 39.233082 -0.292007 -0.337500 -39.107065 0.000424 -0.203580 0.107700 -11.616797 0.414914 -0.859290 0.000000 0.000000 0.000000 -1.139785 3.050860 -0.062178 0.049279 3.052297 -0.381989 16.305042 -16.757732 -8.975940 3.259283 36.207020 5.212378 0.000000 0.000000 0.000000 0.000000 0.000000 0.000000 -48.922147 38.951301 32.095356 -97.796024 17.285743 -18.573874 2.075298 2.463582 -8.490544 -10.100297 7.269162 -7.734279 0.000000 0.000000 0.000000 0.000000 0.000000 0.000000 0.450338 5.897861 -38.831163 3.255562 -4.719509 -0.482996 -24.768723 7.350500 31.000278 0.000000 0.000000 0.000000 -4.186257 -1.894940 -40.698506 0.084072 5.174214 1.571644 9.113372 3.318764 -7.379465 0.000000 0.000000 0.000000
-30.172319 69.163404 339.426825 2.519745 -2.067245 39.137400 -0.332112 -0.375803 -39.010195 0.029956 -0.215518 0.110337 -12.086857 0.698386 -0.723663 0.000000 0.000000 0.000000 -1.218107 3.201304 -0.072114 0.174679 3.246555 -0.394509 19.846372 -26.113862 -10.177721 2.391896 44.774511 5.602922 0.000000 0.000000 0.000000 0.000000 0.000000 0.000000 -49.544611 38.843368 32.344193 -98.025703 16.817549 -19.863109 1.861661 3.303768 -6.925365 -10.681935 9.880933 -1.394527 0.000000 0.000000 0.000000 0.000000 0.000000 0.000000 0.545002 5.741947 -38.719884 3.022030 -4.881312 -0.541686 -24.471288 7.288161 30.548355 0.000000 0.000000 0.000000 -4.249569 -2.040933 -40.626519 0.185582 5.200939 1.599891 11.291309 -1.644879 -6.936322 0.000000 0.000000 0.000000
